<svg xmlns="http://www.w3.org/2000/svg" width="36" height="36" viewBox="0 0 36 36"><defs><style>.a{fill:#cee1f2;}.b{fill:#1428bf;}.c{fill:#ff5cf0;}</style></defs><path class="a" d="M47.827,50.165l-1,1-4.93-4.93a8.764,8.764,0,0,1-2.4-4.479l-.8-3.984,3.984.8c.134.027.268.058.4.091L44.14,44.4a8.764,8.764,0,0,0,2.4,4.479ZM24.219,45.227V26.1A7.031,7.031,0,0,1,31.25,19.07l14.9-.055,0-.016-19.125.07A7.031,7.031,0,0,0,20,26.1V45.227a7.031,7.031,0,0,0,7.031,7.031l3.66-.022A7.032,7.032,0,0,1,24.219,45.227Z" transform="translate(-18.594 -17.664)"/><path class="b" d="M21.8,36H8.438A8.447,8.447,0,0,1,0,27.563V8.438A8.447,8.447,0,0,1,8.438,0H27.563A8.447,8.447,0,0,1,36,8.438V21.9a1.406,1.406,0,0,1-2.812,0V8.438a5.631,5.631,0,0,0-5.625-5.625H8.438A5.631,5.631,0,0,0,2.813,8.438V27.563a5.631,5.631,0,0,0,5.625,5.625H21.8A1.406,1.406,0,0,1,21.8,36Zm12.7-1.5a5.139,5.139,0,0,0,0-7.259l-4.93-4.929a10.138,10.138,0,0,0-5.2-2.781l-3.984-.8a1.406,1.406,0,0,0-1.655,1.655l.8,3.984a10.139,10.139,0,0,0,2.781,5.2l4.93,4.929a5.133,5.133,0,0,0,7.259,0ZM23.818,22.285a7.333,7.333,0,0,1,3.76,2.012l4.93,4.929a2.32,2.32,0,1,1-3.281,3.281L24.3,27.578a7.334,7.334,0,0,1-2.012-3.76L21.9,21.9Z"/><path class="c" d="M120.531,102.3H107.664a1.406,1.406,0,0,1,0-2.812h12.867a1.406,1.406,0,0,1,0,2.813Zm1.406,4.219a1.406,1.406,0,0,0-1.406-1.406H101.406a1.406,1.406,0,0,0,0,2.813h19.125A1.406,1.406,0,0,0,121.938,106.523Zm-14.062,5.625a1.406,1.406,0,0,0-1.406-1.406h-5.062a1.406,1.406,0,0,0,0,2.813h5.063A1.406,1.406,0,0,0,107.875,112.148ZM100,100.758A1.758,1.758,0,1,0,101.758,99,1.758,1.758,0,0,0,100,100.758Z" transform="translate(-92.969 -92.039)"/></svg>