<svg xmlns="http://www.w3.org/2000/svg" width="36" height="36" viewBox="0 0 36 36"><defs><style>.a{fill:#cee1f2;}.b{fill:#0023c4;}.c{fill:#ff5cf4;}</style></defs><path class="a" d="M37.914,138.746a4.5,4.5,0,1,1,0-7.95,4.5,4.5,0,0,0,0,7.95Zm-11.25,4.571V131.574a7.069,7.069,0,0,1,7.076-7.031H29.661a7.031,7.031,0,0,0-7.031,7.031v11.742a7.031,7.031,0,0,0,7.031,7.031h4.078A7.069,7.069,0,0,1,26.664,143.316Z" transform="translate(-21.039 -115.786)"/><path class="b" d="M27.563,136.406H8.438A8.447,8.447,0,0,1,0,127.969V116.438A8.447,8.447,0,0,1,8.438,108H27.563A8.447,8.447,0,0,1,36,116.438v11.531A8.447,8.447,0,0,1,27.563,136.406ZM8.438,110.813a5.631,5.631,0,0,0-5.625,5.625v11.531a5.631,5.631,0,0,0,5.625,5.625H27.563a5.631,5.631,0,0,0,5.625-5.625V116.438a5.631,5.631,0,0,0-5.625-5.625ZM14.766,125.3a5.906,5.906,0,1,1,5.906-5.906A5.913,5.913,0,0,1,14.766,125.3Zm0-9a3.094,3.094,0,1,0,3.094,3.094A3.1,3.1,0,0,0,14.766,116.3Zm13.078,7.559a6.926,6.926,0,0,0-2.382-5.227,1.406,1.406,0,0,0-1.846,2.122,4.114,4.114,0,0,1-4.662,6.72,1.406,1.406,0,1,0-1.346,2.47,6.928,6.928,0,0,0,10.235-6.085Z" transform="translate(0 -100.406)"/><path class="c" d="M89.031,5.625a1.406,1.406,0,0,1-1.406-1.406,1.406,1.406,0,0,0-2.812,0,1.406,1.406,0,0,1-2.812,0,4.219,4.219,0,0,1,8.438,0A1.406,1.406,0,0,1,89.031,5.625Zm17.578-1.406a4.219,4.219,0,0,0-8.437,0,1.406,1.406,0,0,0,2.813,0,1.406,1.406,0,0,1,2.813,0,1.406,1.406,0,0,0,2.813,0Z" transform="translate(-76.234)"/></svg>