<svg xmlns="http://www.w3.org/2000/svg" width="36.009" height="36" viewBox="0 0 36.009 36"><defs><style>.a{fill:#cee1f2;}.b{fill:#1428bf;}.c{fill:#ff5cf0;}</style></defs><g transform="translate(0 -0.068)"><path class="a" d="M25.922,159.511l-1.682-13.84a4.621,4.621,0,0,1,1.173-3.641l-.781-.962a4.641,4.641,0,0,0-4.611,5.166l1.513,13.279a7.031,7.031,0,0,0,6.986,6.235h4.388a7.031,7.031,0,0,1-6.986-6.235Z" transform="translate(-18.585 -131.086)"/><path class="b" d="M26.074,36.068H9.935a8.433,8.433,0,0,1-8.383-7.482L.039,15.307A6.047,6.047,0,0,1,6.047,8.576a1.406,1.406,0,0,1,0,2.813,3.234,3.234,0,0,0-3.213,3.6L4.346,28.267a5.622,5.622,0,0,0,5.589,4.988H26.074a5.622,5.622,0,0,0,5.589-4.988l1.513-13.279a3.234,3.234,0,0,0-3.213-3.6,1.406,1.406,0,0,1,0-2.812,6.047,6.047,0,0,1,6.008,6.731L34.457,28.586a8.433,8.433,0,0,1-8.383,7.482Zm-13.2-16.031V8.013a5.133,5.133,0,0,1,10.266,0v.563H17.1a1.406,1.406,0,1,0,0,2.813h7.453a1.406,1.406,0,0,0,1.406-1.406V8.013a7.945,7.945,0,0,0-15.891,0V20.037a1.406,1.406,0,0,0,2.813,0Z" transform="translate(0)"/><path class="c" d="M246.9,265.068a1.758,1.758,0,1,1-1.758,1.758A1.758,1.758,0,0,1,246.9,265.068Zm5.906,9.7a1.758,1.758,0,1,0,1.758-1.758A1.758,1.758,0,0,0,252.81,274.771Zm-5.173,1.325,8.3-8.648a1.406,1.406,0,0,0-2.03-1.947l-8.3,8.648a1.406,1.406,0,0,0,2.03,1.947Z" transform="translate(-227.909 -246.367)"/></g></svg>