<svg xmlns="http://www.w3.org/2000/svg" width="36" height="36" viewBox="0 0 36 36"><defs><style>.a{fill:#cee1f2;}.b{fill:#1428bf;}.c{fill:#ff5cf0;}</style></defs><path class="a" d="M38.563,214.313a3.336,3.336,0,0,1-1.969.64,3.8,3.8,0,0,1-3.8-3.8v-5.766a3.8,3.8,0,0,1,3.8-3.8,3.336,3.336,0,0,1,1.969.64,3.793,3.793,0,0,0-1.687,3.157v5.766A3.793,3.793,0,0,0,38.563,214.313Zm11.109-3.157v-12.3a3.793,3.793,0,0,1,1.688-3.157,3.336,3.336,0,0,0-1.969-.64,3.8,3.8,0,0,0-3.8,3.8v12.3a3.8,3.8,0,0,0,3.8,3.8,3.336,3.336,0,0,0,1.969-.64A3.793,3.793,0,0,1,49.672,211.156Zm-25.594,0V197.8a3.793,3.793,0,0,1,1.688-3.157A3.336,3.336,0,0,0,23.8,194a3.8,3.8,0,0,0-3.8,3.8v13.359a3.8,3.8,0,0,0,3.8,3.8,3.336,3.336,0,0,0,1.969-.64A3.793,3.793,0,0,1,24.078,211.156Z" transform="translate(-18.594 -180.359)"/><path class="b" d="M5.2,197.766a5.209,5.209,0,0,1-5.2-5.2V179.2a5.2,5.2,0,0,1,10.406,0v13.359A5.209,5.209,0,0,1,5.2,197.766Zm0-20.953A2.393,2.393,0,0,0,2.813,179.2v13.359a2.391,2.391,0,0,0,4.781,0V179.2A2.393,2.393,0,0,0,5.2,176.813ZM18,197.766a5.209,5.209,0,0,1-5.2-5.2V186.8a5.2,5.2,0,0,1,10.406,0v5.766A5.209,5.209,0,0,1,18,197.766Zm0-13.359a2.393,2.393,0,0,0-2.391,2.391v5.766a2.391,2.391,0,0,0,4.781,0V186.8A2.393,2.393,0,0,0,18,184.406Zm12.8,13.359a5.209,5.209,0,0,1-5.2-5.2v-12.3a5.2,5.2,0,0,1,10.406,0v12.3A5.209,5.209,0,0,1,30.8,197.766Zm0-19.9a2.393,2.393,0,0,0-2.391,2.391v12.3a2.391,2.391,0,0,0,4.781,0v-12.3A2.393,2.393,0,0,0,30.8,177.867Z" transform="translate(0 -161.766)"/><path class="c" d="M19.33,17.153a4.9,4.9,0,0,1-3.049-1.058c-.025-.02-9-8.173-9-8.173a2.1,2.1,0,0,0-2.664.092l-2.22,2.2a1.406,1.406,0,0,1-1.978-2S2.7,5.958,2.713,5.943a4.91,4.91,0,0,1,6.344-.2c.025.02,9,8.173,9,8.173a2.114,2.114,0,0,0,2.843-.269l.027-.029,7.795-8.188a1.406,1.406,0,1,1,2.037,1.939l-7.782,8.174a4.918,4.918,0,0,1-3.649,1.61ZM36,8.016v-3.8A4.224,4.224,0,0,0,31.782,0h-3.8a1.406,1.406,0,0,0,0,2.813h3.8a1.408,1.408,0,0,1,1.406,1.406v3.8a1.406,1.406,0,0,0,2.813,0Z" transform="translate(0)"/></svg>