<svg xmlns="http://www.w3.org/2000/svg" width="36" height="36" viewBox="0 0 36 36"><defs><style>.a{fill:#cee1f2;}.b{fill:#0023c4;}.c{fill:#ff5cf3;}</style></defs><g transform="translate(-0.002 0)"><path class="a" d="M135.617,144.535l-1.789-16.418a2.813,2.813,0,0,1,2.8-3.117H132.4a2.813,2.813,0,0,0-2.8,3.117l1.789,16.418a7.031,7.031,0,0,0,6.99,6.269h4.219A7.031,7.031,0,0,1,135.617,144.535Z" transform="translate(-120.478 -116.211)"/><path class="b" d="M36,1.406A1.406,1.406,0,0,1,34.6,2.812H30.94a4.213,4.213,0,0,0-4.194,3.761l-.088.81h1.992a4.2,4.2,0,0,1,4.173,4.653L31.031,28.477A8.425,8.425,0,0,1,22.643,36H17.91a8.425,8.425,0,0,1-8.388-7.523L7.733,12.059a4.219,4.219,0,0,1,4.194-4.676H13.7a.654.654,0,0,0,.549-.295.628.628,0,0,0,.059-.605,5.978,5.978,0,1,0-9.215,7A1.406,1.406,0,1,1,3.35,15.691,8.742,8.742,0,0,1,0,8.755,8.79,8.79,0,0,1,16.9,5.4a3.467,3.467,0,0,1-3.2,4.8H11.927a1.406,1.406,0,0,0-1.4,1.559l1.789,16.418a5.617,5.617,0,0,0,5.592,5.016h4.733a5.617,5.617,0,0,0,5.592-5.016l1.792-16.441A1.385,1.385,0,0,0,28.649,10.2H20.885a1.406,1.406,0,0,1,0-2.813h2.943l.122-1.115A7.021,7.021,0,0,1,30.94,0H34.6A1.406,1.406,0,0,1,36,1.406ZM14.275,20.18a1.758,1.758,0,1,0,1.758-1.758A1.758,1.758,0,0,0,14.275,20.18Zm4.922,10.2a1.758,1.758,0,1,0-1.758-1.758A1.758,1.758,0,0,0,19.2,30.375Z" transform="translate(0 0)"/><path class="c" d="M248.369,196.867a1.423,1.423,0,0,1-.155-.008,1.406,1.406,0,0,1-1.245-1.551l1.086-9.914a1.406,1.406,0,1,1,2.8.306l-1.086,9.914A1.407,1.407,0,0,1,248.369,196.867ZM242,185.758A1.758,1.758,0,1,0,243.758,184,1.758,1.758,0,0,0,242,185.758Z" transform="translate(-224.982 -171.063)"/></g></svg>