<svg xmlns="http://www.w3.org/2000/svg" width="24.991" height="32.809" viewBox="0 0 24.991 32.809"><defs><style>.a{fill:#20aa97;}.b{fill:#3bbba9;}.c{fill:#3cd1bc;}.d{fill:#32c7b3;}.e{fill:#ffb454;}.f{fill:#ff8659;}.g{fill:#ffe196;}</style></defs><g transform="translate(-61 0)"><g transform="translate(61 0)"><g transform="translate(3.173 21.215)"><path class="a" d="M262.657,342.673a.949.949,0,0,1-.126-.008.961.961,0,0,1-.8-.7l-2.226-8.308a.961.961,0,0,1,.673-1.175l4.942-1.363a.961.961,0,0,1,1.184.678l2.236,8.344a.961.961,0,0,1-1.409,1.081l-2.307-1.332-1.332,2.307A.961.961,0,0,1,262.657,342.673Z" transform="translate(-249.924 -331.08)"/><path class="b" d="M116.427,342.675a.961.961,0,0,1-.832-.481l-1.332-2.307-2.307,1.332a.961.961,0,0,1-1.409-1.081l2.236-8.344a.961.961,0,0,1,1.184-.678l4.942,1.363a.961.961,0,0,1,.673,1.175l-2.226,8.308a.961.961,0,0,1-.8.7A.973.973,0,0,1,116.427,342.675Z" transform="translate(-110.515 -331.081)"/></g><path class="c" d="M73.5,24.991a3.578,3.578,0,0,1-2.132-.961,3.162,3.162,0,0,0-.819-.523,3.248,3.248,0,0,0-1.023.039,3.477,3.477,0,0,1-2.276-.228A3.551,3.551,0,0,1,65.9,21.442a3.208,3.208,0,0,0-.464-.888,3.206,3.206,0,0,0-.888-.464,3.55,3.55,0,0,1-1.875-1.345,3.477,3.477,0,0,1-.228-2.276,3.254,3.254,0,0,0,.039-1.023,3.16,3.16,0,0,0-.523-.819A3.577,3.577,0,0,1,61,12.5a3.577,3.577,0,0,1,.961-2.132,3.159,3.159,0,0,0,.523-.819,3.252,3.252,0,0,0-.039-1.023,3.476,3.476,0,0,1,.228-2.277A3.55,3.55,0,0,1,64.549,4.9a3.212,3.212,0,0,0,.888-.464,3.21,3.21,0,0,0,.464-.888,3.55,3.55,0,0,1,1.345-1.875,3.475,3.475,0,0,1,2.276-.228,3.258,3.258,0,0,0,1.023.039,3.159,3.159,0,0,0,.819-.523,2.845,2.845,0,0,1,4.263,0,3.162,3.162,0,0,0,.819.523,3.252,3.252,0,0,0,1.023-.039,3.478,3.478,0,0,1,2.277.228,3.551,3.551,0,0,1,1.345,1.876,3.208,3.208,0,0,0,.464.888,3.206,3.206,0,0,0,.888.464,3.55,3.55,0,0,1,1.875,1.345,3.477,3.477,0,0,1,.228,2.276,3.254,3.254,0,0,0-.039,1.023,3.159,3.159,0,0,0,.523.819,3.578,3.578,0,0,1,.961,2.132,3.577,3.577,0,0,1-.961,2.132,3.161,3.161,0,0,0-.523.819,3.251,3.251,0,0,0,.039,1.023,3.477,3.477,0,0,1-.228,2.277,3.55,3.55,0,0,1-1.876,1.345,3.213,3.213,0,0,0-.888.464,3.21,3.21,0,0,0-.464.888,3.55,3.55,0,0,1-1.345,1.875,3.476,3.476,0,0,1-2.276.228,3.258,3.258,0,0,0-1.023-.039,3.16,3.16,0,0,0-.819.523,3.576,3.576,0,0,1-2.131.961Z" transform="translate(-61 0)"/><path class="d" d="M258.132,24.03a3.158,3.158,0,0,1,.819-.523,3.257,3.257,0,0,1,1.023.039,3.476,3.476,0,0,0,2.277-.228,3.551,3.551,0,0,0,1.345-1.875,3.208,3.208,0,0,1,.464-.888,3.208,3.208,0,0,1,.888-.464,3.55,3.55,0,0,0,1.876-1.345,3.476,3.476,0,0,0,.228-2.277,3.251,3.251,0,0,1-.039-1.023,3.16,3.16,0,0,1,.523-.819A3.578,3.578,0,0,0,268.5,12.5a3.577,3.577,0,0,0-.961-2.132,3.158,3.158,0,0,1-.523-.819,3.25,3.25,0,0,1,.039-1.023,3.477,3.477,0,0,0-.228-2.276A3.55,3.55,0,0,0,264.947,4.9a3.211,3.211,0,0,1-.888-.464,3.208,3.208,0,0,1-.464-.888,3.55,3.55,0,0,0-1.345-1.876,3.477,3.477,0,0,0-2.277-.228,3.252,3.252,0,0,1-1.023.039,3.159,3.159,0,0,1-.819-.523A3.577,3.577,0,0,0,256,0V24.991a3.577,3.577,0,0,0,2.132-.961Z" transform="translate(-243.504 0)"/><circle class="e" cx="7.5" cy="7.5" r="7.5" transform="translate(5.713 5.003)"/><path class="f" d="M263.69,82.69A7.69,7.69,0,0,0,256,75V90.379A7.69,7.69,0,0,0,263.69,82.69Z" transform="translate(-243.504 -70.194)"/><path class="g" d="M129.651,77.3a8.651,8.651,0,1,1,8.651-8.651A8.661,8.661,0,0,1,129.651,77.3Zm0-15.379a6.728,6.728,0,1,0,6.728,6.728A6.736,6.736,0,0,0,129.651,61.922Z" transform="translate(-117.155 -56.155)"/><path class="e" d="M262.728,68.651A6.736,6.736,0,0,1,256,75.379V77.3A8.651,8.651,0,1,0,256,60v1.922A6.736,6.736,0,0,1,262.728,68.651Z" transform="translate(-243.504 -56.155)"/><g transform="translate(7.492 7.049)"><path class="g" d="M185.414,119.611a.96.96,0,0,1-.447-.11l-2.051-1.078-2.051,1.078a.961.961,0,0,1-1.395-1.013l.392-2.284-1.659-1.618a.961.961,0,0,1,.533-1.639l2.293-.333,1.026-2.078a.961.961,0,0,1,1.724,0l1.026,2.078,2.293.333a.961.961,0,0,1,.533,1.639L185.97,116.2l.392,2.284a.961.961,0,0,1-.947,1.124Z" transform="translate(-177.912 -109.999)"/></g></g><g transform="translate(73.495 7.049)"><path class="e" d="M258.051,119.5a.961.961,0,0,0,1.395-1.013l-.392-2.284,1.659-1.618a.961.961,0,0,0-.533-1.639l-2.293-.333-1.026-2.078A.961.961,0,0,0,256,110v8.423Z" transform="translate(-256 -110)"/></g></g></svg>