<svg xmlns="http://www.w3.org/2000/svg" width="36" height="36" viewBox="0 0 36 36"><defs><style>.a{opacity:0.8;}.b{fill:#c2d9ef;}.c{fill:#ff5cf0;}.d{fill:#1428bf;}</style></defs><g transform="translate(-0.5)"><g class="a" transform="translate(2.091 10.424)"><path class="b" d="M27.164,165.666V155.561a7.062,7.062,0,0,1,7.076-7.018H30.161a7.024,7.024,0,0,0-7.031,7.018v10.105a7.024,7.024,0,0,0,7.031,7.018h4.078A7.062,7.062,0,0,1,27.164,165.666Z" transform="translate(-23.13 -148.543)"/></g><g transform="translate(16.027 15.761)"><path class="c" d="M1.758,0A1.754,1.754,0,1,1,0,1.754,1.76,1.76,0,0,1,1.758,0Z" transform="translate(0 2.487) rotate(-45.04)"/></g><g transform="translate(0.5 9.053)"><path class="d" d="M28.063,155.947H8.938A8.439,8.439,0,0,1,.5,147.526V137.421A8.439,8.439,0,0,1,8.938,129H28.063a8.439,8.439,0,0,1,8.438,8.421v10.105A8.439,8.439,0,0,1,28.063,155.947ZM8.938,131.807a5.626,5.626,0,0,0-5.625,5.614v10.105a5.626,5.626,0,0,0,5.625,5.614H28.063a5.626,5.626,0,0,0,5.625-5.614V137.421a5.626,5.626,0,0,0-5.625-5.614Z" transform="translate(-0.5 -129)"/></g><g transform="translate(7.391 17.474)"><path class="d" d="M113.055,258.053h-6.891A7.665,7.665,0,0,1,98.5,250.4a1.406,1.406,0,0,1,2.813,0,4.852,4.852,0,0,0,4.852,4.842h6.891a4.852,4.852,0,0,0,4.852-4.842,1.406,1.406,0,0,1,2.813,0A7.665,7.665,0,0,1,113.055,258.053Z" transform="translate(-98.5 -249)"/></g><g transform="translate(11.82)"><path class="c" d="M173.453,6.246a1.4,1.4,0,0,1-1.406-1.4,2.039,2.039,0,0,0-2.039-2.035h-3.656a2.039,2.039,0,0,0-2.039,2.035,1.406,1.406,0,0,1-2.812,0A4.852,4.852,0,0,1,166.352,0h3.656a4.852,4.852,0,0,1,4.852,4.842A1.4,1.4,0,0,1,173.453,6.246Z" transform="translate(-161.5)"/></g></g></svg>