<svg xmlns="http://www.w3.org/2000/svg" width="36" height="36" viewBox="0 0 36 36"><defs><style>.a{fill:#cee1f2;}.b{fill:#1428bf;}.c{fill:#ff5cf0;}</style></defs><path class="a" d="M24.289,46.156V27.031A7.031,7.031,0,0,1,31.32,20H27.031A7.031,7.031,0,0,0,20,27.031V46.156a7.031,7.031,0,0,0,7.031,7.031H31.32A7.031,7.031,0,0,1,24.289,46.156Z" transform="translate(-18.594 -18.594)"/><path class="b" d="M27.563,36H8.438A8.447,8.447,0,0,1,0,27.563V8.438A8.447,8.447,0,0,1,8.438,0H27.563A8.447,8.447,0,0,1,36,8.438V27.563A8.447,8.447,0,0,1,27.563,36ZM8.438,2.813A5.631,5.631,0,0,0,2.813,8.438V27.563a5.631,5.631,0,0,0,5.625,5.625H27.563a5.631,5.631,0,0,0,5.625-5.625V8.438a5.631,5.631,0,0,0-5.625-5.625ZM21.445,9.984A1.758,1.758,0,1,0,23.2,11.742,1.758,1.758,0,0,0,21.445,9.984ZM15.4,11.813a1.758,1.758,0,1,0,1.758,1.758A1.758,1.758,0,0,0,15.4,11.813Zm.354,11.045a1.758,1.758,0,1,0,1.609,1.61A1.758,1.758,0,0,0,15.752,22.857Zm-7.1,1.893a1.758,1.758,0,1,0,1.758,1.758A1.758,1.758,0,0,0,8.648,24.75Zm1.9-6.4A1.758,1.758,0,1,0,12.3,20.109,1.758,1.758,0,0,0,10.547,18.352Zm8.3-.984A1.758,1.758,0,1,0,20.6,19.125,1.758,1.758,0,0,0,18.844,17.367Zm6.68-1.547a1.758,1.758,0,1,0,1.758,1.758A1.758,1.758,0,0,0,25.523,15.82Z"/><circle class="c" cx="1.758" cy="1.758" r="1.758" transform="translate(25.594 7.383)"/></svg>