<svg xmlns="http://www.w3.org/2000/svg" width="36" height="36" viewBox="0 0 36 36"><defs><style>.a{fill:#cee1f2;}.b{fill:#0023c4;}.c{fill:#ff5cf3;}</style></defs><g transform="translate(0 0)"><path class="a" d="M25.459,63.218a3.386,3.386,0,0,1-1.24-2.6,3.535,3.535,0,0,1,.926-2.21c3.347-4.068,10.168-7.585,15-7.892A14.218,14.218,0,0,0,36.594,50c-4.852,0-12.164,3.656-15.668,7.914A3.535,3.535,0,0,0,20,60.125a3.386,3.386,0,0,0,1.24,2.6,4.783,4.783,0,0,0,4.777.915A4.213,4.213,0,0,1,25.459,63.218Z" transform="translate(-18.594 -46.484)"/><path class="b" d="M19.406,22.641V34.594a1.406,1.406,0,0,1-2.812,0V22.641a1.406,1.406,0,1,1,2.813,0ZM36,13.633A4.794,4.794,0,0,1,34.279,17.3a6.327,6.327,0,0,1-4.015,1.542,5.939,5.939,0,0,1-4.054-1.489,3.25,3.25,0,0,0-2.163-.761,3.086,3.086,0,0,0-2.073.761A5.978,5.978,0,0,1,18,18.914a5.846,5.846,0,0,1-3.974-1.559,3.131,3.131,0,0,0-2.09-.761,3.124,3.124,0,0,0-2.146.761,5.938,5.938,0,0,1-4.054,1.489A6.327,6.327,0,0,1,1.721,17.3,4.794,4.794,0,0,1,0,13.633a4.9,4.9,0,0,1,1.246-3.1A26.176,26.176,0,0,1,16.594,2.192V1.406a1.406,1.406,0,0,1,2.813,0v.786a26.176,26.176,0,0,1,15.348,8.345A4.9,4.9,0,0,1,36,13.633Zm-2.812.014a2.184,2.184,0,0,0-.605-1.324C29.395,8.45,22.444,4.922,18,4.922c.094,0,.1-.009.026-.027-.119.018-.141.027-.026.027-4.444,0-11.395,3.528-14.582,7.4a2.183,2.183,0,0,0-.605,1.324,2.07,2.07,0,0,0,.773,1.54,3.518,3.518,0,0,0,2.171.844A3.135,3.135,0,0,0,7.9,15.27a5.921,5.921,0,0,1,4.055-1.489,5.936,5.936,0,0,1,3.955,1.489,3.032,3.032,0,0,0,4.173,0,6.132,6.132,0,0,1,8.01,0,3.138,3.138,0,0,0,2.146.761,3.518,3.518,0,0,0,2.171-.844,2.069,2.069,0,0,0,.774-1.54Z"/><path class="c" d="M172.094,103.958a1.4,1.4,0,0,1-.994-.412,11.12,11.12,0,0,0-2.409-1.773,1.406,1.406,0,1,1,1.279-2.5,13.822,13.822,0,0,1,3.118,2.289,1.406,1.406,0,0,1-.994,2.4Zm-9.693-.412a11.076,11.076,0,0,1,2.411-1.774,1.406,1.406,0,0,0-1.282-2.5,13.823,13.823,0,0,0-3.118,2.289,1.406,1.406,0,1,0,1.989,1.989Z" transform="translate(-148.751 -92.146)"/></g></svg>