<svg xmlns="http://www.w3.org/2000/svg" width="27.703" height="36" viewBox="0 0 27.703 36"><defs><style>.a{fill:#cee1f2;}.b{fill:#1428bf;}.c{fill:#ff5cf0;}</style></defs><g transform="translate(-59)"><path class="a" d="M133.231,28.086a8.089,8.089,0,0,1,5.59-7.693,8.086,8.086,0,1,0,0,15.385A8.089,8.089,0,0,1,133.231,28.086Z" transform="translate(-64.371 -18.594)"/><path class="b" d="M85.3,36a1.406,1.406,0,0,1-1.406-1.406,10,10,0,0,0-9.984-9.984H71.8a10,10,0,0,0-9.984,9.984,1.406,1.406,0,0,1-2.812,0A12.811,12.811,0,0,1,71.8,21.8h2.109a12.811,12.811,0,0,1,12.8,12.8A1.406,1.406,0,0,1,85.3,36ZM82.2,9.492a9.492,9.492,0,1,0-9.492,9.492A9.5,9.5,0,0,0,82.2,9.492Zm-2.812,0a6.68,6.68,0,1,1-6.68-6.68A6.687,6.687,0,0,1,79.391,9.492Z"/><path class="c" d="M161.1,385.56a1.405,1.405,0,0,1-.706-.19l-5.7-3.3a1.406,1.406,0,0,1-.494-1.951l2.109-3.445a1.406,1.406,0,1,1,2.4,1.469l-1.358,2.217,3.753,2.177,3.85-2.18-1.39-2.2a1.406,1.406,0,0,1,2.377-1.5l2.18,3.445a1.406,1.406,0,0,1-.5,1.975l-5.836,3.3a1.405,1.405,0,0,1-.693.183Z" transform="translate(-88.32 -349.56)"/></g></svg>